<mxfile host="app.diagrams.net" modified="2023-09-07T00:56:09.782Z" agent="Mozilla/5.0 (X11; Linux x86_64; rv:109.0) Gecko/20100101 Firefox/115.0" etag="GZd73EThjli-xHhql7Lv" version="21.7.2" type="device">
  <diagram name="Page-1" id="7D0dYgCwTJYruV0MSurk">
    <mxGraphModel dx="2726" dy="1720" grid="1" gridSize="10" guides="1" tooltips="1" connect="1" arrows="1" fold="1" page="1" pageScale="1" pageWidth="850" pageHeight="1100" math="0" shadow="0">
      <root>
        <mxCell id="0" />
        <mxCell id="1" parent="0" />
        <mxCell id="62fq3bZLgkxCi603Fj_P-1" value="FIM" style="strokeWidth=2;html=1;shape=mxgraph.flowchart.terminator;whiteSpace=wrap;" vertex="1" parent="1">
          <mxGeometry x="285" y="855" width="100" height="60" as="geometry" />
        </mxCell>
        <mxCell id="62fq3bZLgkxCi603Fj_P-5" value="" style="edgeStyle=orthogonalEdgeStyle;rounded=0;orthogonalLoop=1;jettySize=auto;html=1;" edge="1" parent="1" source="62fq3bZLgkxCi603Fj_P-2" target="62fq3bZLgkxCi603Fj_P-3">
          <mxGeometry relative="1" as="geometry" />
        </mxCell>
        <mxCell id="62fq3bZLgkxCi603Fj_P-2" value="INICIO" style="strokeWidth=2;html=1;shape=mxgraph.flowchart.terminator;whiteSpace=wrap;" vertex="1" parent="1">
          <mxGeometry x="285" y="185" width="100" height="60" as="geometry" />
        </mxCell>
        <mxCell id="62fq3bZLgkxCi603Fj_P-6" value="" style="edgeStyle=orthogonalEdgeStyle;rounded=0;orthogonalLoop=1;jettySize=auto;html=1;" edge="1" parent="1" source="62fq3bZLgkxCi603Fj_P-3" target="62fq3bZLgkxCi603Fj_P-4">
          <mxGeometry relative="1" as="geometry" />
        </mxCell>
        <mxCell id="62fq3bZLgkxCi603Fj_P-3" value="DECLARE cateto1, cateto2, hipotenusa" style="rounded=0;whiteSpace=wrap;html=1;" vertex="1" parent="1">
          <mxGeometry x="275" y="285" width="120" height="60" as="geometry" />
        </mxCell>
        <mxCell id="62fq3bZLgkxCi603Fj_P-16" value="" style="edgeStyle=orthogonalEdgeStyle;rounded=0;orthogonalLoop=1;jettySize=auto;html=1;" edge="1" parent="1" source="62fq3bZLgkxCi603Fj_P-4" target="62fq3bZLgkxCi603Fj_P-7">
          <mxGeometry relative="1" as="geometry" />
        </mxCell>
        <mxCell id="62fq3bZLgkxCi603Fj_P-4" value="&quot;Informe o primeiro cateto&quot;" style="shape=document;whiteSpace=wrap;html=1;boundedLbl=1;" vertex="1" parent="1">
          <mxGeometry x="275" y="385" width="120" height="80" as="geometry" />
        </mxCell>
        <mxCell id="62fq3bZLgkxCi603Fj_P-12" style="edgeStyle=orthogonalEdgeStyle;rounded=0;orthogonalLoop=1;jettySize=auto;html=1;entryX=0;entryY=0.5;entryDx=0;entryDy=0;" edge="1" parent="1" source="62fq3bZLgkxCi603Fj_P-7" target="62fq3bZLgkxCi603Fj_P-10">
          <mxGeometry relative="1" as="geometry" />
        </mxCell>
        <mxCell id="62fq3bZLgkxCi603Fj_P-7" value="LEIA cateto1" style="shape=parallelogram;perimeter=parallelogramPerimeter;whiteSpace=wrap;html=1;fixedSize=1;" vertex="1" parent="1">
          <mxGeometry x="275" y="505" width="120" height="60" as="geometry" />
        </mxCell>
        <mxCell id="62fq3bZLgkxCi603Fj_P-17" value="" style="edgeStyle=orthogonalEdgeStyle;rounded=0;orthogonalLoop=1;jettySize=auto;html=1;" edge="1" parent="1" source="62fq3bZLgkxCi603Fj_P-8" target="62fq3bZLgkxCi603Fj_P-9">
          <mxGeometry relative="1" as="geometry" />
        </mxCell>
        <mxCell id="62fq3bZLgkxCi603Fj_P-8" value="hipotenusa = raiz de (cateto1 ^ 2 + cateto2 ^ 2)" style="rounded=0;whiteSpace=wrap;html=1;" vertex="1" parent="1">
          <mxGeometry x="275" y="615" width="120" height="60" as="geometry" />
        </mxCell>
        <mxCell id="62fq3bZLgkxCi603Fj_P-18" value="" style="edgeStyle=orthogonalEdgeStyle;rounded=0;orthogonalLoop=1;jettySize=auto;html=1;" edge="1" parent="1" source="62fq3bZLgkxCi603Fj_P-9" target="62fq3bZLgkxCi603Fj_P-1">
          <mxGeometry relative="1" as="geometry" />
        </mxCell>
        <mxCell id="62fq3bZLgkxCi603Fj_P-9" value="&quot;Hipotenusa o triangulo informado Ã© {hipotenusa}&quot;" style="shape=document;whiteSpace=wrap;html=1;boundedLbl=1;" vertex="1" parent="1">
          <mxGeometry x="275" y="725" width="120" height="80" as="geometry" />
        </mxCell>
        <mxCell id="62fq3bZLgkxCi603Fj_P-15" value="" style="edgeStyle=orthogonalEdgeStyle;rounded=0;orthogonalLoop=1;jettySize=auto;html=1;" edge="1" parent="1" source="62fq3bZLgkxCi603Fj_P-10" target="62fq3bZLgkxCi603Fj_P-11">
          <mxGeometry relative="1" as="geometry" />
        </mxCell>
        <mxCell id="62fq3bZLgkxCi603Fj_P-10" value="&quot;Informe o segundo cateto&quot;" style="shape=document;whiteSpace=wrap;html=1;boundedLbl=1;" vertex="1" parent="1">
          <mxGeometry x="455" y="385" width="120" height="80" as="geometry" />
        </mxCell>
        <mxCell id="62fq3bZLgkxCi603Fj_P-11" value="LEIA cateto2" style="shape=parallelogram;perimeter=parallelogramPerimeter;whiteSpace=wrap;html=1;fixedSize=1;" vertex="1" parent="1">
          <mxGeometry x="455" y="505" width="120" height="60" as="geometry" />
        </mxCell>
        <mxCell id="62fq3bZLgkxCi603Fj_P-14" style="edgeStyle=orthogonalEdgeStyle;rounded=0;orthogonalLoop=1;jettySize=auto;html=1;entryX=1;entryY=0.5;entryDx=0;entryDy=0;" edge="1" parent="1" target="62fq3bZLgkxCi603Fj_P-8">
          <mxGeometry relative="1" as="geometry">
            <mxPoint x="514.72" y="655" as="targetPoint" />
            <mxPoint x="514.72" y="565" as="sourcePoint" />
            <Array as="points">
              <mxPoint x="515" y="645" />
            </Array>
          </mxGeometry>
        </mxCell>
        <mxCell id="62fq3bZLgkxCi603Fj_P-19" value="&amp;nbsp;" style="text;whiteSpace=wrap;html=1;" vertex="1" parent="1">
          <mxGeometry x="505" y="745" width="40" height="40" as="geometry" />
        </mxCell>
      </root>
    </mxGraphModel>
  </diagram>
</mxfile>
